<?xml version="1.0" standalone="no"?>
<!DOCTYPE svg PUBLIC "-//W3C//DTD SVG 20010904//EN"
 "http://www.w3.org/TR/2001/REC-SVG-20010904/DTD/svg10.dtd">
<svg version="1.0" xmlns="http://www.w3.org/2000/svg"
 width="640.000000pt" height="640.000000pt" viewBox="0 0 640.000000 640.000000"
 preserveAspectRatio="xMidYMid meet">
<metadata>
Created by potrace 1.16, written by Peter Selinger 2001-2019
</metadata>
<g transform="translate(0.000000,640.000000) scale(0.100000,-0.100000)"
fill="#000000" stroke="none">
<path d="M5355 5768 c-11 -6 -35 -24 -53 -40 -18 -15 -44 -28 -58 -28 -14 0
-37 -6 -52 -14 -15 -8 -63 -20 -107 -27 -44 -7 -86 -17 -92 -22 -7 -5 -18 -27
-23 -49 -7 -24 -20 -43 -33 -49 -12 -6 -38 -19 -57 -30 -19 -10 -50 -19 -68
-19 -48 0 -70 -15 -82 -58 -16 -62 -48 -83 -132 -92 -40 -4 -97 -17 -126 -30
-39 -17 -64 -21 -100 -17 -28 3 -63 0 -87 -9 -56 -19 -109 -24 -270 -29 -77
-2 -174 -10 -215 -18 -41 -9 -112 -15 -157 -16 -79 0 -87 -2 -180 -49 -54 -28
-126 -63 -161 -78 -34 -15 -70 -36 -78 -45 -20 -22 -10 -42 14 -30 9 5 44 17
77 26 33 8 108 31 167 50 60 19 123 35 140 35 18 0 51 5 73 10 22 5 83 11 135
14 183 10 279 21 415 47 28 6 115 13 195 17 141 7 147 8 224 45 43 21 93 41
112 44 32 5 34 3 51 -38 36 -93 155 -315 183 -344 19 -19 30 -42 30 -59 0 -27
12 -74 53 -199 21 -66 21 -69 4 -82 -23 -16 -150 -13 -192 5 -18 7 -89 14
-180 17 -82 2 -204 10 -270 18 -66 8 -138 15 -161 15 -56 0 -72 19 -46 57 98
144 121 191 129 263 5 49 2 67 -13 95 -10 19 -21 35 -24 35 -14 -1 -38 -50
-48 -97 -21 -98 -98 -189 -208 -244 -74 -38 -95 -44 -172 -49 -48 -3 -102 -4
-120 -2 -38 5 -38 25 0 30 14 2 34 12 43 22 16 17 15 19 -4 29 -13 7 -28 8
-45 1 -34 -13 -33 -4 7 72 43 83 71 176 60 204 -16 43 -67 -21 -78 -99 -6 -40
-13 -52 -46 -75 -21 -15 -41 -35 -44 -44 -4 -10 -21 -20 -43 -24 -20 -4 -48
-15 -62 -25 -58 -40 -263 -139 -289 -139 -17 0 -37 -10 -52 -26 -34 -36 -127
-81 -174 -84 -94 -6 -156 0 -162 15 -8 23 18 46 99 90 56 29 88 55 136 112 64
74 71 95 29 86 -95 -19 -113 -28 -170 -85 -53 -53 -62 -58 -102 -58 -41 0 -47
-3 -77 -47 -74 -105 -178 -178 -271 -191 -53 -7 -48 8 28 98 135 159 275 290
363 339 16 9 21 16 14 23 -13 13 -122 12 -136 -2 -5 -5 -17 -10 -25 -11 -9 0
-52 -40 -96 -88 -44 -49 -90 -94 -103 -101 -12 -8 -36 -37 -52 -64 -16 -28
-88 -111 -159 -184 -98 -101 -140 -136 -167 -144 -33 -9 -93 -37 -229 -106
-22 -11 -56 -28 -75 -37 -19 -9 -53 -27 -75 -40 -22 -14 -63 -35 -91 -48 -55
-26 -142 -85 -175 -118 -12 -12 -40 -30 -64 -40 -23 -10 -48 -25 -54 -33 -7
-8 -25 -17 -39 -21 -15 -3 -40 -21 -54 -39 -15 -19 -52 -48 -82 -65 -29 -17
-81 -60 -114 -96 -33 -36 -65 -65 -71 -65 -6 0 -11 -4 -11 -8 0 -5 -45 -55
-100 -113 -108 -111 -155 -181 -244 -361 -101 -205 -131 -378 -107 -627 13
-130 34 -200 76 -255 14 -18 25 -36 25 -40 0 -3 15 -28 33 -54 18 -26 46 -71
62 -99 15 -29 31 -53 35 -53 4 0 42 -31 86 -69 133 -115 279 -189 554 -281
219 -73 282 -90 323 -90 23 0 58 -5 77 -10 36 -11 132 -23 325 -40 61 -5 135
-14 165 -20 57 -11 198 -14 335 -5 44 2 150 7 235 10 139 5 223 15 373 45 83
17 121 13 147 -15 26 -28 104 -55 158 -55 24 0 40 -7 55 -26 31 -38 67 -73
115 -115 37 -32 42 -41 42 -78 0 -31 9 -53 34 -89 18 -27 37 -58 41 -70 10
-34 124 -158 179 -196 l28 -18 -25 -27 c-13 -14 -27 -37 -30 -50 -13 -52 45
-112 122 -130 23 -5 50 -16 59 -24 9 -8 39 -24 65 -35 26 -12 68 -38 93 -58
55 -46 102 -55 178 -36 56 14 61 13 125 -12 87 -34 128 -35 190 -6 49 22 70
54 34 49 -10 -2 -33 1 -51 5 -27 6 -37 16 -52 50 -14 34 -32 52 -84 84 -36 23
-72 55 -80 71 -16 29 -33 38 -126 66 -30 10 -68 22 -85 27 -16 6 -52 14 -80
19 -27 5 -61 17 -75 27 -14 10 -53 29 -87 41 -34 13 -68 29 -74 37 -6 8 -20
14 -30 14 -10 0 -34 16 -53 36 -39 40 -104 159 -94 170 4 3 27 0 50 -9 24 -8
63 -22 88 -31 59 -21 119 -54 147 -79 24 -21 50 -38 98 -61 29 -14 31 -14 62
20 18 19 36 34 40 34 4 0 39 -15 77 -34 46 -23 86 -53 121 -91 60 -64 90 -70
113 -23 11 23 10 32 -3 58 -8 16 -28 37 -43 47 -15 9 -43 26 -62 39 -19 12
-52 25 -73 28 -21 4 -47 11 -57 16 -10 6 -31 10 -47 10 -45 0 -213 57 -249 85
-42 32 -185 85 -229 85 -23 0 -45 9 -67 28 -18 16 -48 37 -66 48 -17 10 -35
27 -38 37 -10 32 9 40 63 27 26 -6 66 -15 88 -20 23 -5 72 -20 109 -34 38 -14
79 -26 93 -26 13 0 52 -9 86 -19 120 -36 172 -45 197 -31 23 13 82 5 167 -21
17 -5 54 -12 82 -16 46 -5 51 -4 51 14 0 53 -51 72 -217 78 -57 2 -129 11
-161 19 -31 8 -84 20 -117 27 -33 7 -72 18 -87 26 -15 7 -37 13 -50 13 -25 0
-290 77 -378 109 -64 24 -91 25 -136 9 -39 -14 -67 2 -62 36 4 30 84 55 178
56 41 0 106 5 144 10 65 10 71 9 93 -11 29 -28 120 -42 184 -28 33 7 60 7 87
-1 22 -5 98 -14 169 -19 89 -6 139 -13 162 -26 28 -14 41 -15 71 -6 21 6 80
11 133 11 67 0 114 6 159 20 34 11 79 20 98 20 19 0 60 12 90 26 33 15 94 31
155 39 55 8 115 22 133 30 26 14 38 14 67 5 28 -9 39 -9 51 1 13 10 12 14 -2
30 -10 11 -29 19 -43 19 -14 0 -51 7 -81 15 -39 11 -76 14 -127 9 -57 -5 -76
-3 -94 10 -27 19 -48 89 -49 164 0 38 -6 63 -21 84 -30 42 -59 144 -59 208 0
64 46 199 81 236 25 26 51 31 67 12 5 -7 10 -44 11 -83 0 -38 11 -121 23 -183
l23 -114 56 -34 c73 -44 89 -44 89 -1 0 37 -30 106 -54 127 -31 25 -18 54 50
113 36 31 71 57 78 57 15 0 166 154 166 169 0 5 12 14 28 20 35 15 144 153
189 239 19 36 44 79 56 96 12 17 30 48 40 70 10 22 34 62 53 89 27 37 42 75
59 146 31 129 35 166 36 301 1 177 -41 344 -119 471 -29 46 -53 98 -54 114 -2
33 -16 57 -28 50 -5 -3 -15 3 -22 14 -8 11 -27 25 -43 32 -17 8 -52 30 -80 51
-105 78 -95 59 -119 229 -13 85 -30 168 -39 185 -9 18 -21 49 -26 70 -25 105
-192 457 -277 585 -24 37 -44 71 -44 75 0 5 -20 35 -45 67 -24 32 -41 65 -39
72 3 7 20 19 37 28 101 47 137 59 204 67 81 9 113 28 113 66 0 29 -36 55 -66
48 -13 -3 -33 1 -46 10 -26 19 -36 19 -63 4z m-259 -314 c24 -19 44 -40 44
-45 0 -5 14 -28 30 -51 17 -22 30 -45 30 -51 0 -5 13 -26 28 -46 26 -32 55
-83 152 -266 15 -27 35 -72 44 -100 10 -27 22 -58 27 -68 31 -58 81 -222 76
-250 -3 -18 0 -55 5 -84 16 -81 10 -87 -59 -61 -32 12 -65 27 -73 33 -8 7 -44
22 -80 35 -71 25 -110 58 -110 94 0 29 -20 88 -61 174 -17 37 -40 85 -50 108
-10 22 -19 46 -19 52 0 7 -5 20 -10 30 -6 9 -26 55 -46 102 -19 47 -41 92 -48
100 -24 27 -37 59 -57 140 -29 114 -25 129 41 162 30 15 64 28 74 28 10 0 39
-16 62 -36z m-1365 -1700 c52 -9 101 -22 109 -28 8 -7 49 -27 92 -45 73 -31
105 -57 141 -111 25 -37 23 -191 -3 -249 -48 -106 8 -122 62 -17 58 113 56
200 -8 296 -19 28 -34 54 -34 56 0 14 31 -2 71 -36 38 -32 49 -50 59 -91 15
-60 6 -171 -17 -227 -18 -45 -80 -150 -104 -177 -83 -93 -247 -221 -331 -257
-14 -5 -18 -3 -18 11 0 12 17 29 43 44 23 14 55 38 70 53 24 24 26 29 13 42
-12 12 -20 11 -58 -12 -25 -14 -54 -26 -65 -26 -10 0 -32 -13 -48 -30 -15 -16
-42 -32 -59 -36 -17 -3 -49 -16 -71 -27 -22 -11 -76 -30 -120 -43 -44 -12 -93
-27 -110 -34 -48 -19 -461 -22 -560 -4 -44 9 -100 18 -125 21 -25 3 -56 14
-70 23 -14 10 -36 21 -50 25 -29 9 -136 96 -170 138 -21 27 -25 42 -25 97 1
64 7 84 59 188 21 43 177 197 246 245 78 53 191 103 274 122 16 3 45 17 65 31
19 13 43 24 53 24 9 0 43 7 75 16 115 32 471 42 614 18z m-1248 -261 c-10 -16
-50 -66 -90 -112 -40 -46 -73 -87 -73 -92 0 -5 -12 -33 -26 -64 -23 -48 -26
-65 -22 -123 6 -74 38 -136 84 -160 13 -7 24 -19 24 -27 0 -16 96 -64 180 -91
30 -9 62 -23 70 -30 8 -7 38 -18 65 -25 28 -6 54 -16 60 -20 12 -12 6 -12
-111 6 -128 19 -243 74 -324 155 -68 68 -91 114 -98 196 -5 71 3 98 57 189 47
79 55 89 130 163 69 66 105 84 74 35z m877 -742 c0 -15 -9 -20 -37 -24 -90
-12 -107 -3 -45 25 52 23 82 23 82 -1z m-165 -19 c14 -8 -44 -22 -62 -15 -14
6 -14 8 2 19 15 11 33 10 60 -4z m1808 -679 c8 -10 22 -52 31 -93 21 -101 32
-138 52 -167 15 -24 15 -27 -2 -43 -25 -23 -94 -46 -179 -60 -38 -6 -104 -17
-145 -25 -83 -16 -280 -7 -335 15 -16 6 -52 10 -80 9 -87 -5 -189 1 -205 11
-24 15 8 40 87 66 37 12 82 29 98 38 17 8 71 25 120 37 86 20 218 79 420 189
78 42 114 48 138 23z m-679 -1284 c37 -7 51 -6 57 3 16 25 91 10 184 -38 50
-25 102 -57 118 -70 49 -43 38 -50 -79 -52 l-107 -1 -143 71 c-79 38 -148 76
-153 82 -22 27 6 28 123 5z"/>
<path d="M3156 3409 c-14 -11 -26 -27 -26 -36 0 -25 40 -53 75 -53 34 0 75 34
75 62 0 47 -77 64 -124 27z"/>
<path d="M3952 3133 c-23 -25 -42 -49 -42 -54 0 -31 81 -7 94 26 9 24 7 63 -2
69 -5 3 -27 -15 -50 -41z"/>
<path d="M3438 5047 c-31 -14 -108 -83 -108 -97 0 -19 55 -10 105 18 42 23 50
32 50 56 0 34 -10 39 -47 23z"/>
<path d="M3136 5009 c-26 -26 -10 -43 24 -26 28 14 34 40 10 44 -8 1 -24 -7
-34 -18z"/>
<path d="M3004 4965 c-21 -22 -24 -29 -13 -36 17 -10 74 21 74 41 0 25 -34 22
-61 -5z"/>
<path d="M3924 4833 c-25 -23 -34 -38 -26 -40 14 -5 82 42 82 57 0 22 -20 16
-56 -17z"/>
<path d="M5413 2034 c-8 -21 23 -52 38 -37 8 8 8 17 0 32 -14 25 -29 27 -38 5z"/>
<path d="M5456 1961 c-9 -14 8 -52 48 -104 20 -26 36 -55 36 -65 0 -10 12 -29
26 -43 15 -13 37 -40 49 -60 23 -36 36 -49 135 -136 60 -53 117 -113 134 -141
61 -102 73 -112 133 -112 21 -1 60 -7 88 -14 71 -19 75 -36 68 -306 -4 -183
-9 -229 -29 -310 -31 -119 -37 -136 -91 -242 -32 -64 -42 -94 -37 -113 3 -14
9 -25 13 -25 14 0 148 178 165 220 42 104 67 266 71 465 2 105 7 222 10 260 5
64 4 73 -19 100 -22 28 -29 30 -88 30 -54 1 -73 6 -137 40 -92 50 -166 119
-180 170 -6 23 -30 57 -63 90 -29 29 -60 61 -69 71 -9 11 -34 35 -55 55 -21
19 -57 58 -79 86 -55 69 -115 108 -129 84z"/>
</g>
</svg>
